# xmcd CD database file
#
# Track frame offsets:
#	150
#	20571
#	36812
#	51959
#	66932
#	79850
#	96181
#	111126
#	130529
#	145537
#	159709
#	178618
#
# Disc length: 2592 seconds
#
# Revision: 3
# Processed by: cddbd v1.5.1PL0 Copyright (c) Steve Scherf et al.
# Submitted via: CDex 1.50beta9
#
DISCID=9c0a1e0c
DTITLE=Sonny Terry and Brownie McGhee - East Coast Blues
DYEAR=1900
DGENRE=Blues
TTITLE0=Hear Me talking
TTITLE1=The shape i'm in
TTITLE2=Raise tonight
TTITLE3=C.C. Rider
TTITLE4=Cindy, Cindy
TTITLE5=Right now is the time
TTITLE6=Worried life blues
TTITLE7=John henry
TTITLE8=Honey babe don't mind
TTITLE9=Down by the riverside
TTITLE10=Take this hammer
TTITLE11=Jerry roll
EXTD=
EXTT0=
EXTT1=
EXTT2=
EXTT3=
EXTT4=
EXTT5=
EXTT6=
EXTT7=
EXTT8=
EXTT9=
EXTT10=
EXTT11=
PLAYORDER=
